HIERARCHY
ROOT Hips
{
	OFFSET -3.958830 18.904000 13.208200
	CHANNELS 6 Xposition Yposition Zposition Zrotation Yrotation Xrotation 
	JOINT LHipJoint
	{
		OFFSET 0.000000 0.000000 0.000000
		CHANNELS 3 Zrotation Yrotation Xrotation
		JOINT LeftUpLeg
		{
			OFFSET 1.800000 -1.400000 0.085000
			CHANNELS 3 Zrotation Yrotation Xrotation
			JOINT LeftLeg
			{
				OFFSET 2.215000 -6.000000 0.000000
				CHANNELS 3 Zrotation Yrotation Xrotation
				JOINT LeftFoot
				{
					OFFSET 2.500000 -6.900000 0.000000
					CHANNELS 3 Zrotation Yrotation Xrotation
					JOINT LeftToeBase
					{
						OFFSET 0.200000 -0.500000 1.950000
						CHANNELS 3 Zrotation Yrotation Xrotation
						End Site
						{
							OFFSET 0.000000 0.000000 0.000000
						}
					}
				}
			}
		}
	}
	JOINT RHipJoint
	{
		OFFSET 0.000000 0.000000 0.000000
		CHANNELS 3 Zrotation Yrotation Xrotation
		JOINT RightUpLeg
		{
			OFFSET -1.800000 -1.400000 0.085000
			CHANNELS 3 Zrotation Yrotation Xrotation
			JOINT RightLeg
			{
				OFFSET -2.215000 -6.000000 0.000000
				CHANNELS 3 Zrotation Yrotation Xrotation
				JOINT RightFoot
				{
					OFFSET -2.500000 -6.900000 0.000000
					CHANNELS 3 Zrotation Yrotation Xrotation
					JOINT RightToeBase
					{
						OFFSET -0.200000 -0.500000 1.950000
						CHANNELS 3 Zrotation Yrotation Xrotation
						End Site
						{
							OFFSET 0.000000 0.000000 0.000000
						}
					}
				}
			}
		}
	}
	JOINT LowerBack
	{
		OFFSET 0.000000 0.000000 0.000000
		CHANNELS 3 Zrotation Yrotation Xrotation
		JOINT Spine
		{
			OFFSET -0.087000 1.940000 -0.288900
			CHANNELS 3 Zrotation Yrotation Xrotation
			JOINT Spine1
			{
				OFFSET 0.000000 1.950000 0.060000
				CHANNELS 3 Zrotation Yrotation Xrotation
				JOINT Neck
				{
					OFFSET 0.000000 0.000000 0.000000
					CHANNELS 3 Zrotation Yrotation Xrotation
					JOINT Neck1
					{
						OFFSET 0.000000 1.600000 0.340000
						CHANNELS 3 Zrotation Yrotation Xrotation
						JOINT Head
						{
							OFFSET 0.000000 1.667000 -0.240000
							CHANNELS 3 Zrotation Yrotation Xrotation
							End Site
							{
								OFFSET 0.000000 0.000000 0.000000
							}
						}
					}
				}
				JOINT LeftShoulder
				{
					OFFSET 0.000000 0.000000 0.000000
					CHANNELS 3 Zrotation Yrotation Xrotation
					JOINT LeftArm
					{
						OFFSET 2.700000 1.550000 -0.730000
						CHANNELS 3 Zrotation Yrotation Xrotation
						JOINT LeftForeArm
						{
							OFFSET 5.450000 0.000000 0.000000
							CHANNELS 3 Zrotation Yrotation Xrotation
							JOINT LeftHand
							{
								OFFSET 3.450000 0.000000 0.000000
								CHANNELS 3 Zrotation Yrotation Xrotation
								JOINT LeftHandIndex1
								{
									OFFSET 0.750000 0.000000 0.000000
									CHANNELS 3 Zrotation Yrotation Xrotation
									End Site
									{
										OFFSET 0.000000 0.000000 0.000000
									}
								}
							}
						}
					}
				}
				JOINT RightShoulder
				{
					OFFSET 0.000000 0.000000 0.000000
					CHANNELS 3 Zrotation Yrotation Xrotation
					JOINT RightArm
					{
						OFFSET -2.700000 1.550000 -0.730000
						CHANNELS 3 Zrotation Yrotation Xrotation
						JOINT RightForeArm
						{
							OFFSET -5.450000 0.000000 0.000000
							CHANNELS 3 Zrotation Yrotation Xrotation
							JOINT RightHand
							{
								OFFSET -3.450000 0.000000 0.000000
								CHANNELS 3 Zrotation Yrotation Xrotation
								JOINT RightHandIndex1
								{
									OFFSET -0.750000 0.000000 0.000000
									CHANNELS 3 Zrotation Yrotation Xrotation
									End Site
									{
										OFFSET 0.000000 0.000000 0.000000
									}
								}
							}
						}
					}
				}
			}
		}
	}
}
MOTION
Frames: 14
Frame Time: 0.016667
-1.060180 16.875240 -1.653790 3.147151 4.186763 9.138752 -14.931852 13.111525 2.964499 2.273188 -2.716610 -17.761938 -7.685164 6.223330 17.071314 -0.690519 4.316418 3.260472 0.063080 -0.195090 -0.099350 18.489465 -11.031770 2.682314 -4.639027 2.726922 -23.848521 6.108039 -6.625270 25.467943 0.022988 -4.010465 3.107902 0.098520 0.619070 0.097020 -4.314676 -1.191356 -6.945689 13.539485 -2.040480 6.508951 -6.579678 -0.839508 5.145431 0.898258 -5.737547 -7.815743 -10.699763 1.322230 25.811043 -3.926210 -0.897450 -3.473870 -19.137516 -5.816258 3.082079 -52.023289 -9.947244 -1.204961 -47.263476 -52.710377 19.332379 -4.064180 3.221614 0.271220 0.412360 -0.402480 0.160100 16.805916 9.475880 4.053823 55.803727 7.424104 -2.465948 8.277819 10.314751 -0.441523 2.130649 -1.289648 -0.412870 0.401300 0.261320 -0.159450 
-1.058720 16.888620 -1.654450 3.287803 4.452235 9.360189 -14.931291 13.110229 2.948475 2.434844 -2.610996 -17.386084 -7.890489 6.185807 16.406736 -0.700380 4.305288 3.275158 0.054090 -0.203690 -0.107810 18.494142 -11.026400 2.665246 -4.713456 2.633724 -23.755614 6.136585 -6.530348 24.810341 0.042610 -3.938503 3.139140 0.101360 0.633860 0.089480 -4.326423 -1.199105 -6.913746 13.791468 -2.151552 6.164287 -6.910818 -0.944710 5.301905 0.942596 -5.858828 -7.840472 -10.869531 1.261087 25.515426 -3.910550 -1.083440 -3.433710 -18.760088 -5.815805 3.068981 -52.622125 -10.364827 -1.053100 -45.876356 -52.262077 18.421579 -4.071210 3.201632 0.267530 0.419600 -0.413300 0.160900 16.329185 9.472880 4.109170 56.320123 7.407430 -2.458554 8.532518 10.275529 -0.442207 2.125599 -1.286810 -0.425110 0.416750 0.268490 -0.158000 
-1.061480 16.912460 -1.655010 3.596352 4.881365 9.785534 -14.940088 13.119841 2.919957 2.722678 -2.422895 -16.738458 -8.137355 6.121021 15.389296 -0.704834 4.289167 3.297374 0.039280 -0.211850 -0.128650 18.492946 -11.013010 2.634358 -4.735475 2.488074 -23.622041 5.940254 -6.283713 23.708714 0.081508 -3.811263 3.197034 0.105240 0.659310 0.082580 -4.317889 -1.236335 -6.855991 13.953165 -2.312735 5.525798 -7.301589 -1.128756 5.600960 1.022923 -5.989554 -7.909457 -10.999383 1.149519 24.913988 -4.086930 -1.254380 -3.027170 -18.061283 -5.871916 3.088249 -53.723291 -11.073047 -0.831416 -43.154067 -51.368187 16.672679 -4.087419 3.183962 0.245550 0.441060 -0.437160 0.163310 15.483760 9.501291 4.218557 57.112737 7.356219 -2.440021 9.227432 10.303442 -0.445001 2.115651 -1.300083 -0.434650 0.427510 0.277880 -0.151080 
-1.069290 16.943950 -1.653330 4.037531 5.417427 10.177170 -14.958745 13.162070 2.879317 3.205527 -2.193409 -15.799541 -8.321145 6.116280 14.620261 -0.701947 4.343055 3.297417 0.017680 -0.240100 -0.147200 18.480207 -10.994192 2.591632 -4.797898 2.271554 -23.225704 5.677045 -5.975648 22.217280 0.125780 -3.656817 3.265944 0.099440 0.689800 0.086040 -4.280009 -1.335866 -6.789101 13.923317 -2.582737 4.789579 -7.718717 -1.429493 6.024363 1.151381 -6.093990 -8.075842 -11.128379 1.108658 24.397109 -4.384930 -1.317820 -2.393800 -17.145398 -6.136900 3.220732 -55.085793 -11.832615 -0.721262 -39.244768 -50.127860 14.229390 -4.109180 3.161445 0.227850 0.467940 -0.462940 0.164460 14.353355 9.697835 4.399279 58.248585 7.382660 -2.428297 10.037039 10.331595 -0.435388 2.102945 -1.316521 -0.447670 0.432800 0.292660 -0.148600 
-1.082760 16.982260 -1.653850 4.543756 5.787231 10.359615 -14.974727 13.258017 2.821361 3.788437 -1.977088 -14.756399 -8.102372 6.231251 14.975232 -0.672311 4.451311 3.265297 0.001500 -0.257580 -0.158500 18.460136 -10.989758 2.555275 -4.946422 1.999051 -22.550385 5.407388 -5.661023 20.585963 0.155049 -3.490760 3.333994 0.086250 0.695510 0.083410 -4.234946 -1.489220 -6.738065 13.792186 -2.921848 4.337431 -8.240996 -1.749306 6.407709 1.332721 -6.252489 -8.374510 -11.528372 1.268211 24.452639 -4.399760 -1.307660 -2.062830 -16.284650 -6.674954 3.429064 -56.274345 -12.562129 -0.778523 -34.715553 -48.377350 11.463552 -4.102495 3.130294 0.223310 0.469250 -0.468340 0.160780 13.170385 10.223756 4.723316 59.671319 7.390810 -2.573727 10.596980 10.570726 -0.416010 2.103048 -1.322899 -0.448550 0.430970 0.299320 -0.144790 
-1.102070 17.022110 -1.654310 5.061628 5.931619 10.388441 -14.989607 13.399708 2.735693 4.491642 -1.791401 -13.646055 -7.361285 6.419868 16.434209 -0.641120 4.633612 3.200570 -0.015800 -0.284340 -0.169960 18.434833 -10.993088 2.533582 -5.091525 1.735938 -21.733052 5.102783 -5.351325 18.949693 0.177615 -3.336566 3.400066 0.067900 0.696780 0.079310 -4.181841 -1.683182 -6.691903 13.511896 -3.281029 4.066118 -8.806926 -2.057999 6.684125 1.536916 -6.425803 -8.710243 -12.045626 1.597309 24.768435 -4.176910 -1.281900 -1.841630 -15.831601 -7.384618 3.617662 -56.944861 -13.092240 -0.945717 -29.929943 -46.144701 8.699499 -4.088531 3.087260 0.234920 0.461440 -0.469560 0.156790 12.346237 10.935723 5.143242 60.969239 7.256119 -2.920734 11.071490 11.246052 -0.382213 2.096883 -1.318747 -0.454840 0.430760 0.309490 -0.146190 
-1.127180 17.058880 -1.652170 5.461003 5.808363 10.340790 -15.002863 13.568541 2.619777 5.346295 -1.667566 -12.537722 -6.047125 6.615428 18.921666 -0.596978 4.884094 3.107643 -0.025840 -0.299880 -0.177010 18.408897 -10.999726 2.531034 -5.131996 1.527034 -20.922124 4.823444 -5.084253 17.522208 0.186314 -3.213224 3.451849 0.052140 0.693200 0.077010 -4.126092 -1.887934 -6.643414 13.183443 -3.614468 3.889386 -9.287816 -2.347310 6.857263 1.723532 -6.585246 -9.005499 -12.544124 1.999500 25.070984 -3.886630 -1.183060 -1.802780 -15.592418 -7.945459 3.723637 -57.296939 -13.451377 -1.063450 -25.434012 -43.576874 6.304449 -4.069818 3.042885 0.250040 0.448330 -0.462180 0.155850 11.770645 11.491349 5.547488 62.069201 6.929348 -3.510913 11.662137 12.557012 -0.340380 2.087676 -1.314965 -0.456260 0.429900 0.313300 -0.145110 
-1.157580 17.093690 -1.646960 5.793439 5.410857 10.197574 -15.012058 13.738598 2.497719 6.344561 -1.669153 -11.388268 -4.441187 6.858563 22.456868 -0.514425 5.245671 2.963679 -0.016480 -0.285590 -0.170210 18.385136 -11.010722 2.539825 -5.211137 1.348241 -20.197343 4.699247 -4.897892 16.382847 0.181450 -3.122255 3.490922 0.044270 0.664520 0.067850 -4.074327 -2.071278 -6.610103 12.740672 -3.856778 3.855148 -9.715238 -2.545099 6.835197 1.894896 -6.710414 -9.211132 -13.010763 2.427496 25.534009 -3.523240 -0.990020 -1.968940 -15.958838 -8.416467 3.710689 -56.749126 -13.490041 -1.183351 -21.914387 -40.794110 4.588515 -4.034319 3.010753 0.261390 0.420510 -0.442630 0.155510 11.814788 11.960707 5.924094 62.763169 6.360406 -4.127928 12.269851 13.592629 -0.299131 2.092326 -1.313042 -0.441180 0.418280 0.299070 -0.143610 
-1.192520 17.121960 -1.637620 6.066592 4.692028 9.973510 -15.027823 13.901501 2.399594 7.548594 -1.836360 -10.174594 -2.887590 7.216646 26.843823 -0.404706 5.813572 2.744365 -0.014220 -0.289340 -0.156070 18.356624 -11.000340 2.545319 -5.265348 1.204636 -19.531629 4.610152 -4.769660 15.481816 0.170304 -3.047223 3.520996 0.026420 0.633580 0.063130 -3.998378 -2.281180 -6.604618 12.118056 -4.028688 3.936187 -10.050257 -2.673280 6.696136 2.114087 -6.785679 -9.438077 -13.436982 2.923344 26.123389 -3.303200 -0.610700 -2.292560 -16.505202 -8.743508 3.642206 -55.967374 -13.257116 -1.314941 -18.819640 -37.916824 3.214037 -4.003621 2.967278 0.290410 0.390330 -0.417750 0.147510 11.958684 12.269081 6.362512 63.427524 5.412346 -5.222900 13.217488 15.639143 -0.199775 2.084138 -1.299223 -0.433920 0.408470 0.292840 -0.151890 
-1.235840 17.145010 -1.624510 6.282953 3.630239 9.675620 -15.050274 14.033030 2.342939 8.940985 -2.173114 -8.891007 -1.600092 7.756079 31.867583 -0.249880 6.584663 2.456464 -0.015340 -0.299010 -0.139990 18.323980 -10.959502 2.552098 -5.394433 1.081775 -18.839572 4.891428 -4.739928 14.613523 0.147814 -2.989486 3.543569 0.002840 0.600030 0.056590 -3.898617 -2.498466 -6.644587 11.205758 -4.074080 4.157933 -10.167412 -2.682488 6.352038 2.303944 -6.848668 -9.677689 -13.924633 3.533383 26.993651 -2.927360 -0.177090 -2.866770 -17.434417 -9.004600 3.550055 -54.853930 -12.638844 -1.545821 -16.033710 -34.951105 2.101108 -3.968286 2.910506 0.334190 0.351530 -0.383630 0.138140 12.565376 12.559321 6.848153 63.733995 4.157269 -6.483913 14.426954 17.735571 -0.027646 2.079422 -1.267418 -0.430780 0.406580 0.289070 -0.162300 
-1.281510 17.162840 -1.607750 6.347269 2.279917 9.391307 -15.073546 14.117397 2.321420 10.379745 -2.636835 -7.516166 -0.501060 8.432377 37.240850 -0.059339 7.513628 2.127420 -0.024510 -0.326060 -0.128990 18.297779 -10.895866 2.560225 -5.392356 1.012528 -18.217563 5.277950 -4.737284 13.791798 0.126199 -2.946692 3.562249 -0.026400 0.579620 0.057730 -3.800700 -2.680017 -6.707463 10.371525 -4.042290 4.338147 -10.248715 -2.635255 5.829673 2.496569 -6.884620 -9.851791 -14.333269 4.170402 27.833564 -2.615700 0.303120 -3.249250 -18.703735 -9.036610 3.382230 -53.420029 -11.654452 -1.792745 -13.743597 -31.970070 1.280274 -3.947191 2.855142 0.381600 0.322400 -0.355860 0.130340 13.508352 12.603370 7.301160 63.638554 2.626475 -7.825996 16.134453 19.962285 0.254900 2.069016 -1.236670 -0.435480 0.405930 0.292850 -0.174830 
-1.322010 17.170690 -1.593680 6.229337 0.938538 9.235778 -15.094430 14.147620 2.331126 11.635182 -3.256481 -6.370254 0.690415 9.111047 43.082210 0.171889 8.519534 1.774640 -0.031410 -0.340210 -0.117600 18.283263 -10.827431 2.562760 -5.148839 1.010108 -17.885048 5.520726 -4.729358 13.317560 0.112841 -2.911068 3.572334 -0.047020 0.551280 0.061430 -3.724342 -2.789549 -6.769719 9.838981 -3.974792 4.438400 -10.392922 -2.586207 5.188893 2.744873 -6.818986 -9.801286 -14.372098 4.674984 28.288195 -2.689290 0.978330 -3.504070 -20.164869 -8.619981 3.021463 -51.955455 -10.685573 -1.914721 -11.997936 -29.097833 0.747191 -3.940714 2.824206 0.405900 0.302120 -0.333770 0.116250 14.500459 12.088194 7.543748 63.360312 1.021343 -9.043470 18.159969 22.015481 0.619474 2.063646 -1.226339 -0.429340 0.389030 0.294500 -0.186840 
-1.360330 17.171930 -1.584090 6.125696 -0.464549 9.161038 -15.119764 14.148133 2.375001 12.476810 -3.933756 -5.381003 1.971369 9.754445 49.233620 0.436756 9.566322 1.430414 -0.035830 -0.348270 -0.113000 18.269045 -10.760601 2.554160 -4.811896 1.054120 -17.859583 5.512046 -4.701916 13.209529 0.105986 -2.873482 3.584833 -0.063250 0.535760 0.067450 -3.643008 -2.865284 -6.831357 9.232030 -3.858973 4.544033 -10.559414 -2.501014 4.508679 2.996812 -6.631054 -9.646562 -14.052879 5.149755 28.479517 -2.631900 1.645830 -3.637530 -21.478916 -7.931969 2.553247 -50.474841 -9.766769 -1.964528 -10.490163 -26.309902 0.350074 -3.944195 2.802589 0.421240 0.291680 -0.319440 0.109640 15.338967 11.208318 7.695892 63.021433 -0.654675 -10.337256 20.986513 24.757407 1.231308 2.048954 -1.238864 -0.422670 0.373710 0.294460 -0.193200 
-1.392180 17.171570 -1.579390 5.905513 -1.919793 9.153325 -15.137019 14.128265 2.429361 12.870418 -4.598036 -4.529004 3.521015 10.179797 55.459632 0.706502 10.576040 1.118657 -0.035390 -0.352960 -0.105730 18.265522 -10.712520 2.540657 -4.368996 1.137046 -18.072925 5.257521 -4.660383 13.460957 0.108477 -2.836441 3.600234 -0.071280 0.526430 0.069190 -3.590707 -2.883830 -6.873944 8.893529 -3.714031 4.630662 -10.779926 -2.396610 3.790697 3.228418 -6.470497 -9.362247 -13.658085 5.564803 28.362240 -2.564790 2.236510 -3.727280 -22.612213 -6.962783 1.973769 -49.151678 -8.938579 -1.931621 -9.374084 -23.593345 0.076703 -3.957164 2.782691 0.430660 0.287740 -0.315120 0.105440 16.011711 10.050243 7.708020 62.528513 -2.238598 -11.367809 24.351211 27.089460 2.025402 2.034145 -1.264457 -0.421360 0.363080 0.292430 -0.201570 
